<svg id="Layer_1" data-name="Layer 1" xmlns="http://www.w3.org/2000/svg" viewBox="0 0 933.1 221.99">
    <defs>
        <style>
            <!-- .cls-1{
                font-size:191.52px;
                stroke:#7a8ccc;
                stroke-miterlimit:10;
                stroke-width:5px;
                font-family:AGFatumC-Bold, AGFatumC;
                font-weight:700;
            } -->
            
            .cls-1, .cls-2{
                fill:#fff;
            }
            
            .cls-3{
                fill:#7a8ccc;
                stroke:#7a8ccc;
                stroke-width:2px;
            }
        </style>
    </defs>

    <!-- <text class="cls-1" transform="translate(2.5 170.46)">Feathers</text> -->
    <polygon class="cls-2" points="12.26 172.96 12.26 23.56 100.18 23.56 100.18 60.35 54.79 60.35 54.79 79.48 95.97 79.48 95.97 116.27 54.79 116.27 54.79 172.96 12.26 172.96"/>
    <polygon class="cls-2" points="365.99 172.96 365.99 103.44 354.69 103.44 354.69 69.72 365.99 69.72 365.99 40.22 405.84 40.22 405.84 69.72 425.57 69.72 425.57 103.44 405.84 103.44 405.84 172.96 365.99 172.96"/>

    <path class="cls-3" d="M116,48.08V79.87H70.6V104h41.18v31.79H70.6v56.69H33.07V48.08H116m5-5H28.07v154.4H75.6V140.79h41.18V99H75.6V84.87H121V43.08Z" transform="translate(-18.31 -22.02)"/>
    <path class="cls-2" d="M185.7,198.24c-36.07,0-59.38-21.51-59.38-54.78,0-16.56,5.53-30.51,16-40.34,10.19-9.58,24.33-14.64,40.9-14.64,17.3,0,31.64,5.35,41.49,15.48s14.83,24.37,14.83,41.6v6.14H166.27c.81,11.17,7.28,16.83,19.24,16.83,7,0,11.3-2.32,14.51-7.77l.72-1.23h38.12l-.74,3.08C231.82,188.88,206.92,198.24,185.7,198.24Zm15.65-71.65c-2.51-6.24-9-10.51-16.41-10.51-8.46,0-14.73,3.87-17.35,10.51Z" transform="translate(-18.31 -22.02)"/>
    <path class="cls-3" d="M183.21,91C217.3,91,237,112.05,237,145.56v3.64H163.68c0,14.17,7.47,21.83,21.83,21.83,7.47,0,12.83-2.49,16.66-9h33.52c-5.56,23.17-27.58,33.71-50,33.71-32.55,0-56.88-18.39-56.88-52.29,0-32.74,22.41-52.47,54.39-52.47m-19,38.11h40.41c-1.72-9.38-10.34-15.51-19.72-15.51-10.15,0-18.58,5.36-20.69,15.51m19-43.11c-17.22,0-32,5.3-42.61,15.31-11,10.32-16.78,24.9-16.78,42.16,0,17.67,6.21,32.41,18,42.63,11,9.59,26.21,14.66,43.93,14.66,12.72,0,24.45-3.08,33.93-8.9a45.5,45.5,0,0,0,20.92-28.64L242,157H199.31l-1.45,2.47c-2.76,4.7-6.23,6.53-12.35,6.53-9.66,0-15-3.78-16.42-11.83H242v-8.64C242,108.81,219.49,86,183.21,86ZM171.9,124.09c2.8-3.53,7.35-5.51,13-5.51A15.49,15.49,0,0,1,197,124.09Z" transform="translate(-18.31 -22.02)"/>
    <path class="cls-2" d="M295.44,198.24c-29.21,0-52.1-24.15-52.1-55a56.78,56.78,0,0,1,14.34-38.37,49.82,49.82,0,0,1,37.38-16.41c10.64,0,20.68,3.43,27.95,9.39V91.74h39.85V195H323v-6.85C316.43,194.55,306.58,198.24,295.44,198.24Zm8.81-74.5c-11.72,0-19.91,8.11-19.91,19.72,0,11.86,7.82,19.52,19.91,19.52s19.91-7.66,19.91-19.52C324.16,131.85,316,123.74,304.25,123.74Z" transform="translate(-18.31 -22.02)"/>
    <path class="cls-3" d="M295.06,91c11.3,0,23.17,4.21,30.45,12.83V94.24h34.85v98.24H325.51V181.57h-.38c-6.13,9.76-18.2,14.17-29.69,14.17-29.11,0-49.6-24.32-49.6-52.48S266,91,295.06,91m9.19,74.5c14.17,0,22.41-9.58,22.41-22,0-12.06-8.24-22.21-22.41-22.21s-22.41,10.15-22.41,22.21c0,12.45,8.24,22,22.41,22M295.06,86a52.29,52.29,0,0,0-39.23,17.23,59.27,59.27,0,0,0-15,40.05c0,32.23,24,57.48,54.6,57.48,9.62,0,18.35-2.63,25.07-7.32v4.06h44.85V89.24H320.51V93a48.17,48.17,0,0,0-25.45-7Zm9.19,74.5c-10.74,0-17.41-6.52-17.41-17,0-8.56,5.39-17.21,17.41-17.21s17.41,8.65,17.41,17.21c0,10.51-6.67,17-17.41,17Z" transform="translate(-18.31 -22.02)"/>
    <path class="cls-3" d="M421.65,64.74v29.5h19.73V123H421.65v69.52H386.8V123H375.5V94.24h11.3V64.74h34.85m5-5H381.8v29.5H370.5V128h11.3v69.52h44.85V128h19.73V89.24H426.65V59.74Z" transform="translate(-18.31 -22.02)"/>
    <path class="cls-2" d="M518.74,195V142.11c0-15-3.7-20.86-13.21-20.86-13.65,0-15.69,13.07-15.69,20.86V195H450V31h39.86v69.3c7.8-8.06,17.25-11.85,29.29-11.85,25.08,0,39.46,16,39.46,43.87V195Z" transform="translate(-18.31 -22.02)"/>
    <path class="cls-3" d="M487.34,33.53v73.15h.38C495.77,96,505.53,91,519.13,91c24.9,0,37,16.47,37,41.37v60.13H521.24V142.11c0-11.49-1.73-23.36-15.71-23.36-13.79,0-18.19,11.87-18.19,23.36v50.37H452.48V33.53h34.86m5-5H447.48v169h44.86V142.11c0-8.37,2.29-18.36,13.19-18.36,7,0,10.71,2.93,10.71,18.36v55.37h44.85V132.35c0-14-3.47-25.17-10.33-33.26C543.49,90.52,532.55,86,519.13,86c-10.65,0-19.39,2.8-26.79,8.69V28.53Z" transform="translate(-18.31 -22.02)"/>
    <path class="cls-2" d="M628.68,198.24c-36.07,0-59.38-21.51-59.38-54.78,0-16.56,5.53-30.51,16-40.34,10.18-9.58,24.33-14.64,40.9-14.64,17.29,0,31.64,5.35,41.48,15.48s14.84,24.37,14.84,41.6v6.14H609.24c.82,11.17,7.28,16.83,19.25,16.83,7,0,11.3-2.32,14.51-7.77l.72-1.23h38.11l-.73,3.08C674.8,188.88,649.89,198.24,628.68,198.24Zm15.65-71.65c-2.51-6.24-9-10.51-16.42-10.51-8.45,0-14.73,3.87-17.34,10.51Z" transform="translate(-18.31 -22.02)"/>
    <path class="cls-3" d="M626.19,91C660.28,91,680,112.05,680,145.56v3.64H606.66c0,14.17,7.47,21.83,21.83,21.83,7.47,0,12.83-2.49,16.66-9h33.52c-5.56,23.17-27.58,33.71-50,33.71-32.56,0-56.88-18.39-56.88-52.29,0-32.74,22.41-52.47,54.39-52.47m-19,38.11h40.41c-1.72-9.38-10.34-15.51-19.73-15.51-10.15,0-18.57,5.36-20.68,15.51m19-43.11c-17.22,0-32,5.3-42.61,15.31-11,10.32-16.78,24.9-16.78,42.16,0,17.67,6.21,32.41,18,42.63,11,9.59,26.21,14.66,43.93,14.66,12.72,0,24.45-3.08,33.93-8.9a45.53,45.53,0,0,0,20.92-28.64L685,157H642.29l-1.45,2.47c-2.77,4.7-6.23,6.53-12.35,6.53-9.67,0-15-3.78-16.43-11.83h73v-8.64C685,108.81,662.47,86,626.19,86Zm-11.32,38.11c2.81-3.53,7.35-5.51,13-5.51A15.51,15.51,0,0,1,640,124.09Z" transform="translate(-18.31 -22.02)"/>
    <path class="cls-2" d="M693.4,195V91.74h39.86v11.14c7-8.2,17.12-12.48,29.67-12.48h9.2v40.28l-3.72-2.09c-4.35-2.44-8.55-2.94-13.52-2.94-15.16,0-21.63,8.13-21.63,27.19V195Z" transform="translate(-18.31 -22.02)"/>
    <path class="cls-3" d="M769.63,92.9v33.51c-4.78-2.68-9.38-3.26-14.74-3.26-19.34,0-24.13,12.84-24.13,29.69v39.64H695.9V94.24h34.86v16.08h.38c6.7-12.06,18.19-17.42,31.79-17.42h6.7m5-5h-11.7c-10.91,0-20.1,3.06-27.17,9V89.24H690.9V197.48h44.86V152.84c0-17.76,5.36-24.69,19.13-24.69,4.71,0,8.41.44,12.3,2.62l7.44,4.17v-47Z" transform="translate(-18.31 -22.02)"/>
    <path class="cls-2" d="M815.79,198.24a78.43,78.43,0,0,1-40.95-11.67l-2-1.22,15-28.92,2.33,1.64c6.56,4.61,17.95,9.51,26.14,9.51,2.75,0,8.42-1.22,8.42-5s-4-5-13.23-6.94c-2.19-.47-4.44-1-6.74-1.56-11-2.91-23.69-8.74-23.69-28.27,0-25.81,23-37.36,45.78-37.36,12.57,0,23.81,2.2,33.39,6.54l2.42,1.1-14.09,26.79-2.22-1.19a40.75,40.75,0,0,0-17.59-4.49c-2.93,0-8.41,1.23-8.41,4.2,0,3.78,7.28,5,11.64,5.8.75.13,1.45.25,2.05.37,20.55,4.11,30.55,14.43,30.55,31.56C864.64,186.15,840.1,198.24,815.79,198.24Z" transform="translate(-18.31 -22.02)"/>
    <path class="cls-3" d="M826.9,91c11.11,0,22.21,1.72,32.36,6.32l-11.68,22.22a43.18,43.18,0,0,0-18.77-4.79c-4,0-10.91,1.72-10.91,6.7,0,6.7,10.91,7.66,15.7,8.62,16.28,3.25,28.54,10.92,28.54,29.11,0,25.85-23.56,36.58-46.35,36.58a76.14,76.14,0,0,1-39.64-11.3l12.64-24.32c7.08,5,19,10,27.57,10,4.41,0,10.92-2.11,10.92-7.47,0-7.66-10.92-8.05-21.83-10.92s-21.83-8.24-21.83-25.85C783.62,101.7,805.45,91,826.9,91m0-5c-12.44,0-24,3.3-32.55,9.28-10.29,7.21-15.73,17.78-15.73,30.58,0,21.47,14.58,27.8,25.56,30.69,2.34.61,4.63,1.11,6.84,1.59,3.78.81,7.36,1.59,9.57,2.68,1.69.83,1.69,1.33,1.69,1.81,0,1.3-3.31,2.47-5.92,2.47-7.4,0-18.37-4.61-24.7-9.05L787,152.74l-2.64,5.07-12.64,24.32-2.15,4.14,4,2.43a80.85,80.85,0,0,0,42.26,12c25.56,0,51.35-12.86,51.35-41.58,0-10-3.31-18-9.82-23.87-5.37-4.84-12.8-8.16-22.74-10.14-.62-.13-1.34-.25-2.12-.39a36.13,36.13,0,0,1-7.68-1.91c-.19-.09-1.84-.83-1.88-1.4.49-.69,3.17-1.72,5.91-1.72a38.07,38.07,0,0,1,16.41,4.19l4.44,2.38,2.35-4.46,11.68-22.21,2.47-4.7-4.83-2.18C851.41,88.26,839.83,86,826.9,86Z" transform="translate(-18.31 -22.02)"/>
    <path class="cls-2" d="M906.38,142.44c-12.39,0-23.49-5.07-29.68-13.57L874.6,126l3.42-1c16.17-4.71,28-14.86,34.18-29.34,7.94-18.59,5-44.45,4.95-44.7l-.51-4.29,4,1.69c9.73,4.14,20,17.21,25,31.79s4.21,28.93-2.23,40.56a41.76,41.76,0,0,1-37,21.73Z" transform="translate(-18.31 -22.02)"/>
    <path class="cls-3" d="M919.63,50.66c15.35,6.53,36.79,41.42,21.61,68.83a39.22,39.22,0,0,1-34.86,20.45c-11.2,0-21.83-4.54-27.66-12.54,16-4.67,29-14.9,35.78-30.76,8.31-19.45,5.13-46,5.13-46m-6-8,1,8.57c.05.41,2.88,25.53-4.77,43.42-5.89,13.78-17.15,23.43-32.58,27.93l-6.84,2,4.2,5.75c6.66,9.15,18.51,14.6,31.7,14.6a44.25,44.25,0,0,0,39.24-23c6.78-12.26,7.63-27.38,2.4-42.58s-16.1-28.89-26.43-33.28l-8-3.38Z" transform="translate(-18.31 -22.02)"/>
</svg>