<svg id="Layer_1" data-name="Layer 1" xmlns="http://www.w3.org/2000/svg" xmlns:xlink="http://www.w3.org/1999/xlink" viewBox="0 0 568.46 689.57"><defs><style>.cls-1,.cls-4{fill:#c6d4ee;}.cls-1,.cls-3,.cls-7{stroke:#7e90bc;}.cls-1,.cls-11,.cls-12,.cls-14,.cls-19,.cls-2,.cls-3,.cls-7{stroke-miterlimit:10;stroke-width:7px;}.cls-2,.cls-8{fill:#9fccf4;}.cls-11,.cls-2{stroke:#7a8ccc;}.cls-3,.cls-6{fill:#a6bbe8;}.cls-5{clip-path:url(#clip-path);}.cls-11,.cls-19,.cls-7{fill:none;}.cls-9{clip-path:url(#clip-path-2);}.cls-10{fill:#8cb8ed;}.cls-12{fill:#d3dded;}.cls-12,.cls-14{stroke:#7980b2;}.cls-13{clip-path:url(#clip-path-3);}.cls-14,.cls-15{fill:#f2f5fc;}.cls-16{fill:#7980b2;}.cls-17{clip-path:url(#clip-path-4);}.cls-18{clip-path:url(#clip-path-5);}.cls-19{stroke:#a6bbe8;}</style><clipPath id="clip-path" transform="translate(0.01 5.51)"><path id="SVGID" class="cls-1" d="M210.39,581.08s2.11,73.62-41.51,73.62c-44.6,0-41.52-62.05-41.52-89.13Z"/></clipPath><clipPath id="clip-path-2" transform="translate(0.01 5.51)"><path class="cls-2" d="M71.39,253.21S143.83,125.39,18.94,6.44C-35.5,184.68,71.39,253.21,71.39,253.21Z"/></clipPath><clipPath id="clip-path-3" transform="translate(0.01 5.51)"><path id="SVGID-2" data-name="SVGID" class="cls-1" d="M42.35,396.77c-4.66,161,87,217.88,202.4,214.11,122.65-4,205.64-46.18,202.4-214.11C446,334.66,431.7,288,402.39,253.19c-38.11-45.24-99.24-70.54-157.64-70.54-59.44,0-98.36,16.22-134.41,51.24C69.34,273.72,44.07,337.35,42.35,396.77Z"/></clipPath><clipPath id="clip-path-4" transform="translate(0.01 5.51)"><path class="cls-1" d="M441.8,344.49s-8.17-24.54-33.69-37.05c-19.85-9.73-47-12.57-98.91-12.57-64.1,0-110,9.42-134.92,20.75-22.59,10.27-31.19,21.12-39.13,31-26.81,33.24-35.84,37.46-60.54,43.83C65.13,392.88,47.23,395,47.23,395s-7.11-16.59-9.49-47.46c22.17-7.16,35.64-13.66,56.14-25.32,47.89-27.24,57.16-40.95,96.73-63,68.48-38.17,107-42.49,107-42.49a257.86,257.86,0,0,1,74.84,27.57c22.87,12.94,47,31.25,55.54,38.6,16.54,35.24,18.49,52.54,18.49,52.54a46.3,46.3,0,0,1-7,4.7"/></clipPath><clipPath id="clip-path-5" transform="translate(0.01 5.51)"><path class="cls-1" d="M57.38,426.54c76.8,11,110.54,39.79,146.69,59.68,38.92,21.4,66.48,31.46,111.46,42,63.51-14.76,90.43-64.71,137.89-111,3.67-28.54-2.3-59.7-2.3-59.7s-53.27,14.68-124,17.54c-128.75,5.22-213.83-3.58-267.24-7.73C56.59,380.18,56.36,410.76,57.38,426.54Z"/></clipPath></defs><path class="cls-3" d="M318.55,572.65s-10.05,64.7,32.44,64.7c47.51,0,31.6-85.16,31.6-85.16Z" transform="translate(0.01 5.51)"/><path id="SVGID-3" data-name="SVGID" class="cls-4" d="M210.39,581.08s2.11,73.62-41.51,73.62c-44.6,0-41.52-62.05-41.52-89.13Z" transform="translate(0.01 5.51)"/><g class="cls-5"><path class="cls-6" d="M164.12,655.08s9.92-.25,14.27-12.05c5.08-13.79,7.68-36.49,7.68-69.08h40.7v95.51H164.18Z" transform="translate(0.01 5.51)"/></g><path id="SVGID-4" data-name="SVGID" class="cls-7" d="M210.39,581.08s2.11,73.62-41.51,73.62c-44.6,0-41.52-62.05-41.52-89.13Z" transform="translate(0.01 5.51)"/><path class="cls-8" d="M71.39,253.21S143.83,125.39,18.94,6.44C-35.5,184.68,71.39,253.21,71.39,253.21Z" transform="translate(0.01 5.51)"/><g class="cls-9"><path class="cls-10" d="M84,226.63c31.17,0,46.65-105.36,46.65-155.43S53.8-5.51,22.63-5.51C2.88,86.6,20.72,179,84,226.63Z" transform="translate(0.01 5.51)"/></g><path class="cls-11" d="M71.39,253.21S143.83,125.39,18.94,6.44C-35.5,184.68,71.39,253.21,71.39,253.21Z" transform="translate(0.01 5.51)"/><path class="cls-12" d="M379.86,428.92s3.23,14.41,8.1,37.75c6.66,31.82,21.74,91.17,60.58,79.78,32.35-9.48,20-42.45,14-91.75-3.43-28.22-5-39.4-5-39.4Z" transform="translate(0.01 5.51)"/><path class="cls-3" d="M461.31,426.87a71.58,71.58,0,0,1,8.4,24.94c-44.51-2-91.13,14.16-91.13,14.16s-4-7.12-4.5-30" transform="translate(0.01 5.51)"/><path class="cls-3" d="M368.08,460.82s28.34-14.15,52.25-23.37c27.45-10.58,47.72-11.66,47.72-11.66s-17-55.72-64.89-33.13C391.15,398.33,358.13,418,368.08,460.82Z" transform="translate(0.01 5.51)"/><path id="SVGID-5" data-name="SVGID" class="cls-4" d="M42.35,396.77c-4.66,161,87,217.88,202.4,214.11,122.65-4,205.64-46.18,202.4-214.11C446,334.66,431.7,288,402.39,253.19c-38.11-45.24-99.24-70.54-157.64-70.54-59.44,0-98.36,16.22-134.41,51.24C69.34,273.72,44.07,337.35,42.35,396.77Z" transform="translate(0.01 5.51)"/><g class="cls-13"><path class="cls-6" d="M166.1,602.33s232.72,24.32,236-181L385.85,289s-15.4-51.89-55.62-87.89l204.49-91.79,33.73,574.71L210.39,658.25Z" transform="translate(0.01 5.51)"/></g><path id="SVGID-6" data-name="SVGID" class="cls-7" d="M42.35,396.77c-4.66,161,87,217.88,202.4,214.11,122.65-4,205.64-46.18,202.4-214.11C446,334.66,431.7,288,402.39,253.19c-38.11-45.24-99.24-70.54-157.64-70.54-59.44,0-98.36,16.22-134.41,51.24C69.34,273.72,44.07,337.35,42.35,396.77Z" transform="translate(0.01 5.51)"/><path class="cls-6" d="M297.76,213.25s41.6,1.18,69,15.29c25.33,13.07,34.54,40.06,34.54,40.06H343.53Z" transform="translate(0.01 5.51)"/><path class="cls-6" d="M315.51,531.74s48.31,1.5,77.37-14.52c8.59-15.89,19.24-50.79,19.24-50.79l-89,14.92Z" transform="translate(0.01 5.51)"/><path class="cls-6" d="M152.85,410.73c-32.59-3.2-51.16,13.69-54.87,53.14,0,0,2.09-.11,5.55-.23-1.63,15.52-.65,25.14-.65,25.14s3-.83,8.12-1.93c2.69,24.76-12.6,60.62,7.57,75.8,10.05,7.57,26.28,7.76,39.76,2.13,25-10.43,21.73-34.22,20.67-78.86q3.6.42,7.22,1a125.72,125.72,0,0,0,1.31-14.07c3.59,1.08,5.67,1.82,5.67,1.82S204.66,415.82,152.85,410.73Z" transform="translate(0.01 5.51)"/><path class="cls-14" d="M73.53,445s3.22,14.41,8.1,37.74c6.65,31.83,21.73,91.18,60.58,79.79,32.35-9.48,20-42.45,14-91.75-3.44-28.22-5-39.4-5-39.4Z" transform="translate(0.01 5.51)"/><path class="cls-1" d="M163.36,446.87a103.79,103.79,0,0,1,1,24.54c-46.56-3.14-91.46,14.37-91.46,14.37S70,471.41,71.15,448.6" transform="translate(0.01 5.51)"/><path class="cls-1" d="M64.77,458.81s33.09-5,58.7-4.43A247.44,247.44,0,0,1,171,460.43s6.27-66.21-51.46-66.21C83.26,394.22,64.58,414.87,64.77,458.81Z" transform="translate(0.01 5.51)"/><path class="cls-15" d="M441.8,344.49s-8.17-24.54-33.69-37.05c-19.85-9.73-47-12.57-98.91-12.57-64.1,0-109.84,9.73-134.92,20.75-26.48,11.65-39.13,31-39.13,31l27.24,58.54L328,412.92l98.17-25.51Z" transform="translate(0.01 5.51)"/><circle class="cls-16" cx="400.72" cy="343.34" r="14.09"/><circle class="cls-16" cx="207.32" cy="348.61" r="15.73"/><path class="cls-4" d="M441.8,344.49s-8.17-24.54-33.69-37.05c-19.85-9.73-47-12.57-98.91-12.57-64.1,0-110,9.42-134.92,20.75-22.59,10.27-31.19,21.12-39.13,31-26.81,33.24-35.84,37.46-60.54,43.83C65.13,392.88,47.23,395,47.23,395s-7.11-16.59-9.49-47.46c22.17-7.16,35.64-13.66,56.14-25.32,47.89-27.24,57.16-40.95,96.73-63,68.48-38.17,107-42.49,107-42.49a257.86,257.86,0,0,1,74.84,27.57c22.87,12.94,47,31.25,55.54,38.6,16.54,35.24,18.49,52.54,18.49,52.54a46.3,46.3,0,0,1-7,4.7" transform="translate(0.01 5.51)"/><g class="cls-17"><path class="cls-6" d="M371.58,238.6s33.62,48.27,38.57,102.32c5.79,63.25,9.32,110.16-12.3,136.54l67.46-1.84-.65-248.35Z" transform="translate(0.01 5.51)"/></g><path class="cls-7" d="M441.8,344.49s-8.17-24.54-33.69-37.05c-19.85-9.73-47-12.57-98.91-12.57-64.1,0-110,9.42-134.92,20.75-22.59,10.27-31.19,21.12-39.13,31-26.81,33.24-35.84,37.46-60.54,43.83C65.13,392.88,47.23,395,47.23,395s-7.11-16.59-9.49-47.46c22.17-7.16,35.64-13.66,56.14-25.32,47.89-27.24,57.16-40.95,96.73-63,68.48-38.17,107-42.49,107-42.49a257.86,257.86,0,0,1,74.84,27.57c22.87,12.94,47,31.25,55.54,38.6,16.54,35.24,18.49,52.54,18.49,52.54a46.3,46.3,0,0,1-7,4.7" transform="translate(0.01 5.51)"/><path class="cls-3" d="M408.73,367.62a100.1,100.1,0,0,0,36.58-27.81s3,12.89,2.38,22.84" transform="translate(0.01 5.51)"/><path class="cls-1" d="M116.77,335.3s30.78,22,91.35,46.65c31.24,12.71-70.56,11.18-85.48-2.44a157.66,157.66,0,0,1-25.11-30.37C105.31,340.27,116.77,335.3,116.77,335.3Z" transform="translate(0.01 5.51)"/><path class="cls-4" d="M57.38,426.54c76.8,11,110.54,39.79,146.69,59.68,38.92,21.4,66.48,31.46,111.46,42,63.51-14.76,90.43-64.71,137.89-111,3.67-28.54-2.3-59.7-2.3-59.7s-53.27,14.68-124,17.54c-128.75,5.22-213.83-3.58-267.24-7.73C56.59,380.18,56.36,410.76,57.38,426.54Z" transform="translate(0.01 5.51)"/><g class="cls-18"><path class="cls-6" d="M371.58,238.6s33.62,48.27,38.57,102.32c5.79,63.25,9.32,110.16-12.3,136.54l67.46-1.84-.65-248.35Z" transform="translate(0.01 5.51)"/><path class="cls-19" d="M327.15,375.08s1.56,40.82-.32,80.63c-1.66,35-11.3,72.51-11.3,72.51" transform="translate(0.01 5.51)"/><path class="cls-6" d="M291.47,494.67a68.55,68.55,0,0,1-17.67-2.94c-6.11-19.24-8.11-65.19,1.46-90,8.48.27,17.83,0,17.83,0S283.47,445.27,291.47,494.67Z" transform="translate(0.01 5.51)"/><path class="cls-6" d="M257.09,400.92s-12.95,36.73-2.35,86.35a85.42,85.42,0,0,1-18.16-6.4S226,441,238.45,400.11C246.47,400.43,257.09,400.92,257.09,400.92Z" transform="translate(0.01 5.51)"/><path class="cls-6" d="M219.76,474.15s-10.13-4.26-16.94-7.82c-3.89-11-7.91-41.65,2.76-69.57,7.4,1.19,16.49,2.05,16.49,2.05C211.69,427.33,215.15,459,219.76,474.15Z" transform="translate(0.01 5.51)"/><path class="cls-6" d="M354.5,398.76s7.59-.52,14.92-1.84c5.73,61.24-6.84,88.57-6.84,88.57a46.77,46.77,0,0,1-14.23,6.2C352.12,481.14,359.63,451.84,354.5,398.76Z" transform="translate(0.01 5.51)"/><path class="cls-6" d="M377.18,395.81a64.21,64.21,0,0,0,10.37-1.94c5.11,55.59-2.83,77.1-2.83,77.1A56.27,56.27,0,0,1,372,480.38S381.63,460.43,377.18,395.81Z" transform="translate(0.01 5.51)"/><path class="cls-6" d="M393.74,392.76A58.85,58.85,0,0,0,403,390s6.55,37.15-1.72,66a41.37,41.37,0,0,1-9.37,8.95C400.93,435,393.74,392.76,393.74,392.76Z" transform="translate(0.01 5.51)"/></g><path class="cls-7" d="M57.38,426.54c76.8,11,110.54,39.79,146.69,59.68,38.92,21.4,66.48,31.46,111.46,42,63.51-14.76,90.43-64.71,137.89-111,3.67-28.54-2.3-59.7-2.3-59.7s-53.27,14.68-124,17.54c-128.75,5.22-213.83-3.58-267.24-7.73C56.59,380.18,56.36,410.76,57.38,426.54Z" transform="translate(0.01 5.51)"/><circle class="cls-3" cx="89.35" cy="406.68" r="11.68"/></svg>