<svg id="Layer_1" data-name="Layer 1" xmlns="http://www.w3.org/2000/svg" viewBox="0 0 931.6 220.99"><defs><style>.cls-1{font-size:191.52px;stroke:#3c4c7d;stroke-miterlimit:10;stroke-width:4px;font-family:AGFatumC-Bold, AGFatumC;font-weight:700;}.cls-1,.cls-2{fill:#fff;}.cls-3{fill:#3c4c7d;}</style></defs><text class="cls-1" transform="translate(2 169.96)">Feathers</text><polygon class="cls-2" points="12.26 171.96 12.26 23.56 99.18 23.56 99.18 59.35 53.79 59.35 53.79 79.48 94.97 79.48 94.97 115.27 53.79 115.27 53.79 171.96 12.26 171.96"/><path class="cls-3" d="M116,48.08V79.87H70.6V104h41.18v31.79H70.6v56.69H33.07V48.08H116m4-4H29.07v152.4H74.6V139.79h41.18V100H74.6V83.87H120V44.08Z" transform="translate(-18.81 -22.52)"/><path class="cls-2" d="M185.7,197.74c-35.76,0-58.88-21.31-58.88-54.29S149,89,183.21,89c17.16,0,31.38,5.3,41.13,15.33C234,114.19,239,128.46,239,145.56v5.64h-73.3C166.39,163,173,169,185.51,169c7.17,0,11.63-2.39,14.94-8l.58-1h37.19l-.59,2.47C231.41,188.48,206.72,197.74,185.7,197.74Zm16.37-70.65c-2.37-6.79-9.21-11.51-17.13-11.51-9,0-15.55,4.25-18.07,11.51Z" transform="translate(-18.81 -22.52)"/><path class="cls-3" d="M183.21,91C217.3,91,237,112.05,237,145.56v3.64H163.68c0,14.17,7.47,21.83,21.83,21.83,7.47,0,12.83-2.49,16.66-9h33.52c-5.56,23.17-27.58,33.71-50,33.71-32.55,0-56.88-18.39-56.88-52.29,0-32.74,22.41-52.47,54.39-52.47m-19,38.11h40.41c-1.72-9.38-10.34-15.51-19.72-15.51-10.15,0-18.58,5.36-20.69,15.51m19-42.11c-17,0-31.46,5.2-41.92,15-10.77,10.13-16.47,24.45-16.47,41.43,0,34.2,23.9,56.29,60.88,56.29,12.53,0,24.09-3,33.41-8.76a44.49,44.49,0,0,0,20.47-28l1.18-4.93H199.89l-1.16,2c-2.94,5-6.77,7-13.22,7-10.58,0-16.36-4.53-17.59-13.83H241v-7.64c0-17.63-5.28-32.38-15.26-42.65C215.64,92.49,200.92,87,183.21,87ZM170,125.09c2.8-4.78,8.1-7.51,14.95-7.51a16.26,16.26,0,0,1,14,7.51Z" transform="translate(-18.81 -22.52)"/><path class="cls-2" d="M295.44,197.74c-28.93,0-51.6-23.93-51.6-54.48a56.32,56.32,0,0,1,14.21-38,49.34,49.34,0,0,1,37-16.24c10.93,0,21.21,3.66,28.45,10V92.24h38.85V194.48H323.51V186.9C317.05,193.77,306.94,197.74,295.44,197.74Zm8.81-74.5c-12,0-20.41,8.31-20.41,20.21,0,12.17,8,20,20.41,20s20.41-7.86,20.41-20C324.66,131.55,316.27,123.24,304.25,123.24Z" transform="translate(-18.81 -22.52)"/><path class="cls-3" d="M295.06,91c11.3,0,23.17,4.21,30.45,12.83V94.24h34.85v98.24H325.51V181.57h-.38c-6.13,9.76-18.2,14.17-29.69,14.17-29.11,0-49.6-24.32-49.6-52.48S266,91,295.06,91m9.19,74.5c14.17,0,22.41-9.58,22.41-22,0-12.06-8.24-22.21-22.41-22.21s-22.41,10.15-22.41,22.21c0,12.45,8.24,22,22.41,22M295.06,87a51.29,51.29,0,0,0-38.49,16.9,58.28,58.28,0,0,0-14.73,39.38c0,31.67,23.54,56.48,53.6,56.48,10.18,0,19.35-3,26.07-8.3v5h42.85V90.24H321.51v4.62A46.7,46.7,0,0,0,295.06,87Zm9.19,74.5c-11.18,0-18.41-7.08-18.41-18,0-9.06,5.7-18.21,18.41-18.21s18.41,9.15,18.41,18.21c0,11-7.23,18-18.41,18Z" transform="translate(-18.81 -22.52)"/><polygon class="cls-2" points="365.99 171.96 365.99 102.44 354.69 102.44 354.69 69.72 365.99 69.72 365.99 40.22 404.84 40.22 404.84 69.72 424.57 69.72 424.57 102.44 404.84 102.44 404.84 171.96 365.99 171.96"/><path class="cls-3" d="M421.65,64.74v29.5h19.73V123H421.65v69.52H386.8V123H375.5V94.24h11.3V64.74h34.85m4-4H382.8v29.5H371.5V127h11.3v69.52h42.85V127h19.73V90.24H425.65V60.74Z" transform="translate(-18.81 -22.52)"/><path class="cls-2" d="M519.24,194.48V142.11c0-12.82-2.33-21.36-13.71-21.36-14.61,0-16.19,14.94-16.19,21.36v52.37H450.48V31.53h38.86V101.6C497.21,93,506.79,89,519.13,89c24.76,0,39,15.81,39,43.37v62.13Z" transform="translate(-18.81 -22.52)"/><path class="cls-3" d="M487.34,33.53v73.15h.38C495.77,96,505.53,91,519.13,91c24.9,0,37,16.47,37,41.37v60.13H521.24V142.11c0-11.49-1.73-23.36-15.71-23.36-13.79,0-18.19,11.87-18.19,23.36v50.37H452.48V33.53h34.86m4-4H448.48v167h42.86V142.11c0-7.23,1.84-19.36,14.19-19.36,8.65,0,11.71,5.07,11.71,19.36v54.37h42.85V132.35c0-13.74-3.39-24.71-10.09-32.61C542.92,91.39,532.25,87,519.13,87c-11.19,0-20.22,3.16-27.79,9.84V29.53Z" transform="translate(-18.81 -22.52)"/><path class="cls-2" d="M628.68,197.74c-35.77,0-58.88-21.31-58.88-54.29S591.93,89,626.19,89c17.16,0,31.38,5.3,41.13,15.33,9.61,9.88,14.69,24.15,14.69,41.25v5.64h-73.3C609.37,163,616,169,628.49,169c7.17,0,11.63-2.39,14.94-8l.58-1H681.2l-.59,2.47C674.38,188.48,649.7,197.74,628.68,197.74Zm16.37-70.65c-2.37-6.79-9.21-11.51-17.14-11.51-9,0-15.54,4.25-18.06,11.51Z" transform="translate(-18.81 -22.52)"/><path class="cls-3" d="M626.19,91C660.28,91,680,112.05,680,145.56v3.64H606.66c0,14.17,7.47,21.83,21.83,21.83,7.47,0,12.83-2.49,16.66-9h33.52c-5.56,23.17-27.58,33.71-50,33.71-32.56,0-56.88-18.39-56.88-52.29,0-32.74,22.41-52.47,54.39-52.47m-19,38.11h40.41c-1.72-9.38-10.34-15.51-19.73-15.51-10.15,0-18.57,5.36-20.68,15.51m19-42.11c-17,0-31.46,5.2-41.93,15-10.77,10.13-16.46,24.45-16.46,41.43,0,34.2,23.9,56.29,60.88,56.29,12.53,0,24.08-3,33.41-8.76a44.49,44.49,0,0,0,20.47-28l1.18-4.93H642.86l-1.16,2c-2.93,5-6.76,7-13.21,7-10.58,0-16.37-4.53-17.59-13.83H684v-7.64c0-17.63-5.28-32.38-15.26-42.65S643.9,87,626.19,87ZM613,125.09c2.8-4.78,8.09-7.51,14.94-7.51a16.24,16.24,0,0,1,14,7.51Z" transform="translate(-18.81 -22.52)"/><path class="cls-2" d="M693.9,194.48V92.24h38.86v12C739.68,95.5,750,90.9,762.93,90.9h8.7v38.92l-3-1.66c-4.45-2.49-8.72-3-13.77-3-15.51,0-22.13,8.28-22.13,27.69v41.64Z" transform="translate(-18.81 -22.52)"/><path class="cls-3" d="M769.63,92.9v33.51c-4.78-2.68-9.38-3.26-14.74-3.26-19.34,0-24.13,12.84-24.13,29.69v39.64H695.9V94.24h34.86v16.08h.38c6.7-12.06,18.19-17.42,31.79-17.42h6.7m4-4h-10.7c-11.53,0-21.08,3.49-28.17,10.21V90.24H691.9V196.48h42.86V152.84c0-18.24,5.83-25.69,20.13-25.69,4.73,0,8.72.47,12.79,2.75l6,3.34V88.9Z" transform="translate(-18.81 -22.52)"/><path class="cls-2" d="M815.79,197.74a77.88,77.88,0,0,1-40.69-11.6l-1.59-1,14.56-28,1.87,1.31c6.62,4.65,18.13,9.59,26.42,9.59,2.91,0,8.92-1.33,8.92-5.46s-5.18-5.6-13.63-7.43c-2.17-.47-4.43-1-6.71-1.56-10.86-2.85-23.32-8.6-23.32-27.78,0-25.46,22.74-36.86,45.28-36.86,12.5,0,23.67,2.19,33.19,6.5l1.93.87-13.61,25.88-1.77-1a41.42,41.42,0,0,0-17.83-4.55c-2.79,0-8.91,1.18-8.91,4.7,0,4.2,7.54,5.51,12.05,6.29.75.13,1.44.25,2,.37,20.29,4,30.15,14.22,30.15,31.07C864.14,185.81,839.85,197.74,815.79,197.74Z" transform="translate(-18.81 -22.52)"/><path class="cls-3" d="M826.9,91c11.11,0,22.21,1.72,32.36,6.32l-11.68,22.22a43.18,43.18,0,0,0-18.77-4.79c-4,0-10.91,1.72-10.91,6.7,0,6.7,10.91,7.66,15.7,8.62,16.28,3.25,28.54,10.92,28.54,29.11,0,25.85-23.56,36.58-46.35,36.58a76.14,76.14,0,0,1-39.64-11.3l12.64-24.32c7.08,5,19,10,27.57,10,4.41,0,10.92-2.11,10.92-7.47,0-7.66-10.92-8.05-21.83-10.92s-21.83-8.24-21.83-25.85C783.62,101.7,805.45,91,826.9,91m0-4c-12.24,0-23.6,3.23-32,9.1-10,7-15.3,17.3-15.3,29.76,0,9.06,2.71,16.25,8.06,21.35,5.09,4.85,11.62,7,16.75,8.37,2.33.61,4.6,1.1,6.8,1.58,3.85.83,7.48,1.62,9.8,2.76s2.25,2,2.25,2.71c0,2.23-4.09,3.47-6.92,3.47-7.6,0-18.82-4.7-25.27-9.24l-3.74-2.62-2.11,4.05L772.6,182.59l-1.72,3.31,3.18,1.95a79.87,79.87,0,0,0,41.73,11.89c13.06,0,25.12-3.3,34-9.28,10.72-7.26,16.39-18.08,16.39-31.3,0-9.67-3.2-17.46-9.49-23.13-5.23-4.71-12.51-7.95-22.26-9.9-.62-.13-1.33-.25-2.1-.38-3.11-.54-10.39-1.8-10.39-4.32,0-1.29,3.62-2.7,6.91-2.7A39.16,39.16,0,0,1,845.69,123l3.56,1.91,1.87-3.57L862.8,99.16l2-3.75-3.87-1.75c-9.78-4.43-21.22-6.68-34-6.68Z" transform="translate(-18.81 -22.52)"/><path class="cls-2" d="M906.38,141.94c-12.23,0-23.18-5-29.28-13.36l-1.68-2.31,2.74-.79c16.32-4.76,28.25-15,34.5-29.63,8-18.71,5-44.69,5-44.95l-.41-3.43,3.18,1.35c9.61,4.09,19.79,17,24.77,31.49s4.17,28.65-2.2,40.15a41.27,41.27,0,0,1-36.61,21.48Z" transform="translate(-18.81 -22.52)"/><path class="cls-3" d="M919.63,50.66c15.35,6.53,36.79,41.42,21.61,68.83a39.22,39.22,0,0,1-34.86,20.45c-11.2,0-21.83-4.54-27.66-12.54,16-4.67,29-14.9,35.78-30.76,8.31-19.45,5.13-46,5.13-46m-4.79-6.39.82,6.86h0c0,.26,2.94,25.73-4.84,43.94-6,14.05-17.5,23.91-33.22,28.49l-5.47,1.59,3.36,4.6c6.47,8.89,18,14.19,30.89,14.19a43.23,43.23,0,0,0,38.36-22.51c6.65-12,7.48-26.84,2.34-41.77S931.29,51.27,921.2,47l-6.36-2.71Z" transform="translate(-18.81 -22.52)"/></svg>