<?xml version="1.0" encoding="utf-8"?>
<!-- Generator: Adobe Illustrator 26.0.1, SVG Export Plug-In . SVG Version: 6.00 Build 0)  -->
<svg version="1.1" id="Layer_1" xmlns="http://www.w3.org/2000/svg" xmlns:xlink="http://www.w3.org/1999/xlink" x="0px" y="0px"
	 viewBox="0 0 474.11 658.2" style="enable-background:new 0 0 474.11 658.2;" xml:space="preserve">
<style type="text/css">
	.st0{fill:#A6BBE8;stroke:#7E90BC;stroke-width:7;stroke-miterlimit:10;}
	.st1{clip-path:url(#SVGID_00000101786371513172527410000003547189532024259483_);fill:#A6BBE8;}
	.st2{clip-path:url(#XMLID_00000171721994368355988780000006697060096625832878_);fill:#8CB8ED;}
	.st3{fill:#D3DDED;stroke:#7980B2;stroke-width:7;stroke-miterlimit:10;}
	.st4{clip-path:url(#SVGID_00000008109518498871736950000004817479283257095050_);fill:#A6BBE8;}
	.st5{fill:#A6BBE8;}
	.st6{fill:#F2F5FC;stroke:#7980B2;stroke-width:7;stroke-miterlimit:10;}
	.st7{fill:#C6D4EE;stroke:#7E90BC;stroke-width:7;stroke-miterlimit:10;}
	.st8{display:none;clip-path:url(#XMLID_00000000918857712204194370000006844789807963628189_);fill:#D3DDED;}
	.st9{fill:#7980B2;}
	.st10{clip-path:url(#XMLID_00000109718594220584781360000014909999823963156098_);fill:#A6BBE8;}
	.st11{clip-path:url(#XMLID_00000098179689479333832940000000424546282096693127_);fill:#A6BBE8;}
	
		.st12{clip-path:url(#XMLID_00000098179689479333832940000000424546282096693127_);fill:none;stroke:#A6BBE8;stroke-width:7;stroke-miterlimit:10;}
</style>
<g>
	<path class="st0" d="M318.55,572.65c0,0-10.05,64.7,32.43,64.7c47.51,0,31.6-85.16,31.6-85.16L318.55,572.65z"/>
	<g>
		<defs>
			<path id="SVGID_1_" d="M210.39,581.08c0,0,2.11,73.62-41.51,73.62c-44.59,0-41.51-62.05-41.51-89.14L210.39,581.08z"/>
		</defs>
		<use xlink:href="#SVGID_1_"  style="overflow:visible;fill:#C6D4EE;"/>
		<clipPath id="SVGID_00000036238613167861173550000015842065282163778441_">
			<use xlink:href="#SVGID_1_"  style="overflow:visible;"/>
		</clipPath>
		<path style="clip-path:url(#SVGID_00000036238613167861173550000015842065282163778441_);fill:#A6BBE8;" d="M164.12,655.08
			c0,0,9.92-0.25,14.27-12.05c5.08-13.78,7.68-36.49,7.68-69.08h40.7v95.51h-62.59L164.12,655.08z"/>
		<use xlink:href="#SVGID_1_"  style="overflow:visible;fill:none;stroke:#7E90BC;stroke-width:7;stroke-miterlimit:10;"/>
	</g>
	<g>
		<defs>
			<path id="XMLID_00000110464909197467425140000012637668871151182011_" d="M71.39,253.21c0,0,72.45-127.82-52.44-246.77
				C-35.5,184.68,71.39,253.21,71.39,253.21z"/>
		</defs>
		<use xlink:href="#XMLID_00000110464909197467425140000012637668871151182011_"  style="overflow:visible;fill:#9FCCF4;"/>
		<clipPath id="XMLID_00000115508432199195321720000008725077021825197990_">
			<use xlink:href="#XMLID_00000110464909197467425140000012637668871151182011_"  style="overflow:visible;"/>
		</clipPath>
		<path style="clip-path:url(#XMLID_00000115508432199195321720000008725077021825197990_);fill:#8CB8ED;" d="M84.01,226.63
			c31.17,0,46.65-105.35,46.65-155.42S53.8-5.51,22.63-5.51C2.88,86.6,20.72,179.03,84.01,226.63z"/>
		
			<use xlink:href="#XMLID_00000110464909197467425140000012637668871151182011_"  style="overflow:visible;fill:none;stroke:#7A8CCC;stroke-width:7;stroke-miterlimit:10;"/>
	</g>
	<g>
		<path class="st3" d="M379.86,428.92c0,0,3.23,14.41,8.1,37.75c6.65,31.82,21.73,91.17,60.58,79.79
			c32.34-9.48,20.02-42.45,14.02-91.75c-3.44-28.22-5-39.41-5-39.41L379.86,428.92z"/>
		<path class="st0" d="M461.31,426.87c0,0,6.62,11.03,8.4,24.95c-44.51-2-91.13,14.16-91.13,14.16s-3.98-7.12-4.5-29.96"/>
		<path class="st0" d="M368.08,460.82c0,0,28.34-14.15,52.25-23.37c27.45-10.59,47.73-11.67,47.73-11.67s-16.97-55.72-64.89-33.13
			C391.15,398.33,358.13,418.01,368.08,460.82z"/>
	</g>
	<g>
		<defs>
			<path id="SVGID_00000129924169484769284050000016783572121197353657_" d="M42.35,396.77c-4.66,160.96,86.96,217.88,202.4,214.12
				c122.65-4,205.64-46.18,202.4-214.12c-1.2-62.11-15.45-108.78-44.76-143.58c-38.11-45.24-99.24-70.54-157.64-70.54
				c-59.44,0-98.36,16.22-134.41,51.24C69.34,273.72,44.07,337.35,42.35,396.77z"/>
		</defs>
		<use xlink:href="#SVGID_00000129924169484769284050000016783572121197353657_"  style="overflow:visible;fill:#C6D4EE;"/>
		<clipPath id="SVGID_00000169537034226462623100000013334412267493808777_">
			<use xlink:href="#SVGID_00000129924169484769284050000016783572121197353657_"  style="overflow:visible;"/>
		</clipPath>
		<path style="clip-path:url(#SVGID_00000169537034226462623100000013334412267493808777_);fill:#A6BBE8;" d="M166.1,602.33
			c0,0,232.73,24.32,235.97-180.97l-16.22-132.32c0,0-15.41-51.89-55.62-87.89l204.49-91.78l33.73,574.7l-358.05-25.8L166.1,602.33z
			"/>
		
			<use xlink:href="#SVGID_00000129924169484769284050000016783572121197353657_"  style="overflow:visible;fill:none;stroke:#7E90BC;stroke-width:7;stroke-miterlimit:10;"/>
	</g>
	<path class="st5" d="M297.76,213.25c0,0,41.61,1.18,68.96,15.29c25.33,13.07,34.54,40.05,34.54,40.05h-57.73L297.76,213.25z"/>
	<path class="st5" d="M315.51,531.74c0,0,48.3,1.5,77.36-14.53c8.59-15.89,19.24-50.78,19.24-50.78l-89.03,14.92L315.51,531.74z"/>
	<g>
		<path class="st5" d="M152.85,410.73c-32.59-3.2-51.17,13.68-54.87,53.13c0,0,2.08-0.11,5.55-0.22
			c-1.64,15.52-0.65,25.14-0.65,25.14s2.97-0.84,8.12-1.93c2.69,24.76-12.6,60.62,7.57,75.8c10.05,7.57,26.28,7.76,39.76,2.13
			c24.98-10.43,21.73-34.22,20.67-78.86c2.4,0.28,4.81,0.62,7.22,1.02c0.75-3.81,1.13-10.67,1.31-14.07
			c3.58,1.08,5.67,1.82,5.67,1.82S204.66,415.82,152.85,410.73z"/>
		<path class="st6" d="M73.53,445.03c0,0,3.23,14.41,8.1,37.75c6.65,31.82,21.73,91.17,60.58,79.79
			c32.34-9.48,20.02-42.45,14.02-91.75c-3.44-28.22-5-39.41-5-39.41L73.53,445.03z"/>
		<path class="st7" d="M163.36,446.87c0,0,2.16,12.32,0.97,24.54c-46.56-3.14-91.46,14.38-91.46,14.38s-2.92-14.38-1.73-37.19"/>
		<path class="st7" d="M64.77,458.81c0,0,33.09-5.04,58.7-4.43c25.41,0.6,47.57,6.06,47.57,6.06s6.27-66.22-51.46-66.22
			C83.26,394.22,64.58,414.87,64.77,458.81z"/>
	</g>
	<g>
		<defs>
			<path id="XMLID_00000105424712934760256690000014764699106122081191_" d="M441.8,344.49c0,0-8.16-24.54-33.69-37.05
				c-19.85-9.73-47.02-12.57-98.91-12.57c-64.1,0-109.84,9.73-134.92,20.76c-26.49,11.65-39.14,30.97-39.14,30.97l27.24,58.54
				l165.62,7.78l98.16-25.51L441.8,344.49z"/>
		</defs>
		<use xlink:href="#XMLID_00000105424712934760256690000014764699106122081191_"  style="overflow:visible;fill:#F2F5FC;"/>
		<clipPath id="XMLID_00000110431736087042468970000015338225797413492865_">
			<use xlink:href="#XMLID_00000105424712934760256690000014764699106122081191_"  style="overflow:visible;"/>
		</clipPath>
		<path style="display:none;clip-path:url(#XMLID_00000110431736087042468970000015338225797413492865_);fill:#D3DDED;" d="
			M371.58,238.6c0,0,33.62,48.27,38.57,102.32c5.79,63.25,9.32,110.16-12.3,136.54l67.46-1.84l-0.65-248.35L371.58,238.6z"/>
	</g>
	<circle class="st9" cx="400.71" cy="337.83" r="14.09"/>
	<circle class="st9" cx="207.31" cy="343.1" r="15.73"/>
	<g>
		<defs>
			<path id="XMLID_00000160912030578619410270000007770084637773175230_" d="M441.8,344.49c0,0-8.16-24.54-33.69-37.05
				c-19.85-9.73-47.02-12.57-98.91-12.57c-64.1,0-109.98,9.42-134.92,20.76c-22.59,10.27-31.19,21.12-39.14,30.97
				c-26.81,33.24-35.84,37.46-60.54,43.84c-9.48,2.45-27.38,4.54-27.38,4.54s-7.11-16.59-9.49-47.46
				c22.16-7.16,35.64-13.67,56.14-25.32c47.89-27.24,57.16-40.95,96.73-63c68.48-38.17,107.03-42.49,107.03-42.49
				s37.3,6.32,74.84,27.57c22.87,12.94,47.02,31.25,55.54,38.59c16.54,35.24,18.49,52.54,18.49,52.54c-2.27,2.11-6.97,4.7-6.97,4.7"
				/>
		</defs>
		<use xlink:href="#XMLID_00000160912030578619410270000007770084637773175230_"  style="overflow:visible;fill:#C6D4EE;"/>
		<clipPath id="XMLID_00000155825596886666613520000010780897371260891778_">
			<use xlink:href="#XMLID_00000160912030578619410270000007770084637773175230_"  style="overflow:visible;"/>
		</clipPath>
		<path style="clip-path:url(#XMLID_00000155825596886666613520000010780897371260891778_);fill:#A6BBE8;" d="M371.58,238.6
			c0,0,33.62,48.27,38.57,102.32c5.79,63.25,9.32,110.16-12.3,136.54l67.46-1.84l-0.65-248.35L371.58,238.6z"/>
		
			<use xlink:href="#XMLID_00000160912030578619410270000007770084637773175230_"  style="overflow:visible;fill:none;stroke:#7E90BC;stroke-width:7;stroke-miterlimit:10;"/>
	</g>
	<path class="st0" d="M408.73,367.62c23.71-10.59,36.58-27.81,36.58-27.81s3.03,12.89,2.38,22.84"/>
	<path class="st7" d="M116.77,335.3c0,0,30.78,22,91.35,46.65c31.24,12.71-70.57,11.19-85.48-2.43
		c-14.92-13.62-25.11-30.38-25.11-30.38C105.31,340.27,116.77,335.3,116.77,335.3z"/>
	<g>
		<defs>
			<path id="XMLID_00000125600282135566699090000008506946398461194915_" d="M57.38,426.54c76.79,11.03,110.53,39.79,146.69,59.68
				c38.92,21.41,66.49,31.46,111.46,42c63.51-14.76,90.43-64.7,137.89-110.97c3.68-28.54-2.3-59.7-2.3-59.7
				s-53.27,14.68-123.97,17.54c-128.75,5.22-213.83-3.58-267.24-7.73C56.59,380.18,56.36,410.76,57.38,426.54z"/>
		</defs>
		<use xlink:href="#XMLID_00000125600282135566699090000008506946398461194915_"  style="overflow:visible;fill:#C6D4EE;"/>
		<clipPath id="XMLID_00000089544833883095032970000015407875228344681648_">
			<use xlink:href="#XMLID_00000125600282135566699090000008506946398461194915_"  style="overflow:visible;"/>
		</clipPath>
		<path style="clip-path:url(#XMLID_00000089544833883095032970000015407875228344681648_);fill:#A6BBE8;" d="M371.58,238.6
			c0,0,33.62,48.27,38.57,102.32c5.79,63.25,9.32,110.16-12.3,136.54l67.46-1.84l-0.65-248.35L371.58,238.6z"/>
		
			<path style="clip-path:url(#XMLID_00000089544833883095032970000015407875228344681648_);fill:none;stroke:#A6BBE8;stroke-width:7;stroke-miterlimit:10;" d="
			M327.15,375.08c0,0,1.56,40.82-0.32,80.63c-1.65,34.96-11.3,72.51-11.3,72.51"/>
		<path style="clip-path:url(#XMLID_00000089544833883095032970000015407875228344681648_);fill:#A6BBE8;" d="M291.47,494.67
			c-9.51-0.24-17.68-2.94-17.68-2.94c-6.11-19.24-8.11-65.19,1.46-90c8.49,0.27,17.84,0,17.84,0S283.47,445.27,291.47,494.67z"/>
		<path style="clip-path:url(#XMLID_00000089544833883095032970000015407875228344681648_);fill:#A6BBE8;" d="M257.09,400.92
			c0,0-12.95,36.73-2.35,86.35c-10.39-2.38-18.16-6.41-18.16-6.41s-10.62-39.84,1.86-80.76
			C246.47,400.43,257.09,400.92,257.09,400.92z"/>
		<path style="clip-path:url(#XMLID_00000089544833883095032970000015407875228344681648_);fill:#A6BBE8;" d="M219.76,474.15
			c0,0-10.13-4.25-16.94-7.82c-3.89-11.03-7.92-41.65,2.76-69.57c7.4,1.19,16.49,2.05,16.49,2.05
			C211.69,427.33,215.15,458.97,219.76,474.15z"/>
		<path style="clip-path:url(#XMLID_00000089544833883095032970000015407875228344681648_);fill:#A6BBE8;" d="M354.5,398.76
			c0,0,7.59-0.51,14.92-1.84c5.73,61.24-6.84,88.57-6.84,88.57s-5.11,3.73-14.23,6.2C352.12,481.14,359.63,451.84,354.5,398.76z"/>
		<path style="clip-path:url(#XMLID_00000089544833883095032970000015407875228344681648_);fill:#A6BBE8;" d="M377.18,395.81
			c0,0,5.27-0.49,10.38-1.95c5.11,55.59-2.84,77.11-2.84,77.11c-6.16,6.11-12.73,9.41-12.73,9.41S381.63,460.43,377.18,395.81z"/>
		<path style="clip-path:url(#XMLID_00000089544833883095032970000015407875228344681648_);fill:#A6BBE8;" d="M393.74,392.76
			c0,0,5.03-1,9.23-2.72c0,0,6.55,37.15-1.72,65.96c-4.16,5.57-9.37,8.95-9.37,8.95C400.93,434.97,393.74,392.76,393.74,392.76z"/>
		
			<use xlink:href="#XMLID_00000125600282135566699090000008506946398461194915_"  style="overflow:visible;fill:none;stroke:#7E90BC;stroke-width:7;stroke-miterlimit:10;"/>
	</g>
	<circle class="st0" cx="89.34" cy="401.17" r="11.68"/>
</g>
</svg>
