<?xml version="1.0" encoding="utf-8"?>
<!-- Generator: Adobe Illustrator 26.0.1, SVG Export Plug-In . SVG Version: 6.00 Build 0)  -->
<svg version="1.1" id="Layer_1" xmlns="http://www.w3.org/2000/svg" xmlns:xlink="http://www.w3.org/1999/xlink" x="0px" y="0px"
	 viewBox="0 0 1920 5400" style="enable-background:new 0 0 1920 5400;" xml:space="preserve">
<style type="text/css">
	.st0{display:none;opacity:0.5;clip-path:url(#_x31__00000166637993698185382810000001825508468188723609_);fill:url(#SVGID_1_);}
	
		.st1{opacity:0.25;clip-path:url(#_x31__00000166637993698185382810000001825508468188723609_);fill:url(#SVGID_00000077319558810065597960000004195564288948695430_);}
	
		.st2{opacity:0.2;clip-path:url(#_x31__00000166637993698185382810000001825508468188723609_);fill:url(#SVGID_00000163793471565352312670000015035788009727360697_);}
	
		.st3{opacity:0.25;clip-path:url(#_x31__00000166637993698185382810000001825508468188723609_);fill:url(#SVGID_00000099663139260802327680000011440925202778190985_);}
	.st4{clip-path:url(#_x31__00000166637993698185382810000001825508468188723609_);}
	.st5{filter:url(#Adobe_OpacityMaskFilter);}
	.st6{fill:url(#SVGID_00000024681807263746944300000009614887768826009734_);}
	.st7{opacity:0.1;mask:url(#SVGID_00000052106433227943498440000006734283773845222293_);}
	.st8{fill:#FFFFFF;}
	.st9{opacity:0.2;}
	.st10{fill:url(#SVGID_00000163033007964243093110000005490216191948007340_);}
	.st11{opacity:0.55;fill:#C3D2ED;stroke:#96AEED;stroke-width:3;stroke-miterlimit:10;}
	.st12{opacity:0.5;}
	.st13{opacity:0.55;fill:#FFFFFF;stroke:#7E90BC;stroke-width:3;stroke-miterlimit:10;}
</style>
<g>
	<defs>
		<rect id="_x31__00000150812839810651379250000013516124780037481365_" x="0" width="1920" height="5400"/>
	</defs>
	
		<linearGradient id="_x31__00000085943291508356600620000018101274538443243136_" gradientUnits="userSpaceOnUse" x1="960" y1="5400" x2="960" y2="253.2025">
		<stop  offset="0" style="stop-color:#FDFDFD"/>
		<stop  offset="0.4569" style="stop-color:#EFF5F9"/>
		<stop  offset="0.503" style="stop-color:#C9E3F2"/>
		<stop  offset="0.5553" style="stop-color:#A5C3EF"/>
		<stop  offset="0.6407" style="stop-color:#839EEA"/>
		<stop  offset="0.7437" style="stop-color:#7184E2"/>
		<stop  offset="1" style="stop-color:#5860C4"/>
	</linearGradient>
	
		<use xlink:href="#_x31__00000150812839810651379250000013516124780037481365_"  style="overflow:visible;fill:url(#_x31__00000085943291508356600620000018101274538443243136_);"/>
	<clipPath id="_x31__00000000217521351464659420000006133726457208272302_">
		<use xlink:href="#_x31__00000150812839810651379250000013516124780037481365_"  style="overflow:visible;"/>
	</clipPath>
	
		<radialGradient id="SVGID_1_" cx="463.8418" cy="3164.1206" r="1116.8438" gradientTransform="matrix(-2.7369 0 0 -1.0523 1607.4761 6411.772)" gradientUnits="userSpaceOnUse">
		<stop  offset="0" style="stop-color:#FF6065;stop-opacity:0.5"/>
		<stop  offset="1" style="stop-color:#FFEBEB;stop-opacity:0"/>
	</radialGradient>
	
		<ellipse style="display:none;opacity:0.5;clip-path:url(#_x31__00000000217521351464659420000006133726457208272302_);fill:url(#SVGID_1_);" cx="337.97" cy="3082.25" rx="5388.44" ry="1190.41"/>
	
		<radialGradient id="SVGID_00000150086820277616244810000007630818137408759454_" cx="391.5723" cy="3235.0735" r="826.5897" gradientTransform="matrix(-1.2095 0 0 -1.002 1126.724 6476.7354)" gradientUnits="userSpaceOnUse">
		<stop  offset="0" style="stop-color:#FF7A84"/>
		<stop  offset="1" style="stop-color:#FF7A84;stop-opacity:0"/>
	</radialGradient>
	
		<ellipse style="opacity:0.25;clip-path:url(#_x31__00000000217521351464659420000006133726457208272302_);fill:url(#SVGID_00000150086820277616244810000007630818137408759454_);" cx="653.12" cy="3235.07" rx="1017.94" ry="841.62"/>
	
		<radialGradient id="SVGID_00000042715714612531652460000014294127637452895121_" cx="1424.1306" cy="2174.3242" r="826.5897" gradientTransform="matrix(-1.6096 0 0 -1.002 3857.5283 4353.0767)" gradientUnits="userSpaceOnUse">
		<stop  offset="0" style="stop-color:#E5A2FF"/>
		<stop  offset="1" style="stop-color:#FFA2FF;stop-opacity:0"/>
	</radialGradient>
	
		<ellipse style="opacity:0.2;clip-path:url(#_x31__00000000217521351464659420000006133726457208272302_);fill:url(#SVGID_00000042715714612531652460000014294127637452895121_);" cx="1565.31" cy="2174.32" rx="1354.63" ry="841.62"/>
	
		<radialGradient id="SVGID_00000057142747350024896370000018373101874059872186_" cx="1424.1306" cy="2174.3242" r="826.5897" gradientTransform="matrix(-1.6096 0 0 -1.002 3857.5283 4353.0767)" gradientUnits="userSpaceOnUse">
		<stop  offset="0" style="stop-color:#D1FFF1"/>
		<stop  offset="1" style="stop-color:#D1FFF1;stop-opacity:0"/>
	</radialGradient>
	
		<ellipse style="opacity:0.25;clip-path:url(#_x31__00000000217521351464659420000006133726457208272302_);fill:url(#SVGID_00000057142747350024896370000018373101874059872186_);" cx="1565.31" cy="2174.32" rx="1354.63" ry="841.62"/>
	<g style="clip-path:url(#_x31__00000000217521351464659420000006133726457208272302_);">
		<defs>
			<filter id="Adobe_OpacityMaskFilter" filterUnits="userSpaceOnUse" x="-14.78" y="2268.72" width="1949.05" height="813.95">
				<feColorMatrix  type="matrix" values="1 0 0 0 0  0 1 0 0 0  0 0 1 0 0  0 0 0 1 0"/>
			</filter>
		</defs>
		
			<mask maskUnits="userSpaceOnUse" x="-14.78" y="2268.72" width="1949.05" height="813.95" id="SVGID_00000173151092282585456810000003986745089241060234_">
			<g class="st5">
				
					<linearGradient id="SVGID_00000072975079578362089850000001324328604805415573_" gradientUnits="userSpaceOnUse" x1="960" y1="2769.4729" x2="960" y2="2243.4189">
					<stop  offset="0.2814" style="stop-color:#000000"/>
					<stop  offset="0.4573" style="stop-color:#FFFFFF"/>
				</linearGradient>
				
					<rect y="2243.42" style="fill:url(#SVGID_00000072975079578362089850000001324328604805415573_);" width="1920" height="526.05"/>
			</g>
		</mask>
		<g style="opacity:0.1;mask:url(#SVGID_00000173151092282585456810000003986745089241060234_);">
			<path class="st8" d="M-12.19,2268.72c0,0,103.05,184.22,308.11,184.22c280.08,0,408.65-179.69,692.76-179.69
				c254.92,0,455.61,133.83,713.19,167.69c72.71,9.56,155.53-6.24,232.41-30.77l0,60.93c0,0-74.44,43.79-195.76,42.16
				c-290.59-3.89-409.3-165.41-713.84-123.21c-252.92,35.04-346.16,146.07-598.38,194.89c-301.62,58.38-441.08-72.32-441.08-72.32
				L-12.19,2268.72z"/>
			<path class="st8" d="M1929.86,2614.45c0,0-62.16,23.47-167.35,1.3c-132.32-27.89-339.89-126.49-459.57-136.86
				c-106.13-9.2-243.68-36.21-489.47,103.69c-175.07,99.65-269.77,211.55-439.07,209.28c-99.67-1.34-216.32-38.92-269.19-65.84
				c-49.25-25.08-115.46-45.73-115.46-45.73v96.32c0,0,137.96,96.43,333.41,112.86c208.22,17.51,367.79-116.01,440.43-180.32
				c101.84-90.16,307.46-235.76,529.62-200.11c212.41,34.09,390.16,145.95,549.73,180c49.42,10.55,84.71-2.11,84.71-2.11
				L1929.86,2614.45z"/>
			<path class="st8" d="M1921.86,2902.66c0,0-135.14-54.19-230.05-72.22c-180.97-34.38-322.8,3.76-448.86,44.76
				c-159.57,51.89-269.84,160.86-369.73,194.59c-81.44,27.5,82.16,2.38,82.16,2.38s80.43-67.03,177.73-116.32
				c97.3-49.3,280.85-104.58,435.46-79.35c155.03,25.3,185.81,53.13,262.05,91.89c58.48,29.73,91.24,55.35,91.24,55.35V2902.66z"/>
		</g>
		<g class="st9">
			<path class="st8" d="M1473.34,3301.63c-61.45-38.76-86.25-66.59-211.19-91.89c-124.6-25.23-272.53,30.05-350.94,79.35
				c-78.41,49.3-143.24,116.32-143.24,116.32h778.91v-48.43C1546.87,3356.98,1520.47,3331.36,1473.34,3301.63z"/>
			<path class="st8" d="M1417.76,3000.82c-126.36-41.59-206.34-124.46-377.52-158.54c-179.04-35.65-344.76,109.95-426.83,200.11
				c-58.54,64.31-187.15,197.84-354.95,180.32c-157.51-16.44-268.7-112.86-268.7-112.86v295.57h706.52
				c1.65-0.75,3.47-1.54,5.48-2.38c80.5-33.73,169.37-142.7,297.97-194.59c101.59-41,215.9-79.14,361.75-44.76
				c76.49,18.03,558.53,90.64,558.53,90.64v-253.5c0,0-56.62-50.58-151.97-50.05c-86.92,0.48-107.2,17.38-157.95,42.49
				C1571.16,3012.51,1494.62,3026.12,1417.76,3000.82z"/>
			<path class="st8" d="M1399.11,2846.5c-234.2-3.89-329.86-165.41-575.29-123.21c-203.83,35.04-278.97,146.07-482.24,194.89
				c-217.84,52.32-330.72-47.22-351.82-68.45v163.8c0,0,53.36,20.65,93.05,45.73c42.6,26.92,136.62,64.5,216.94,65.84
				c136.44,2.27,212.76-109.64,353.85-209.28c198.09-139.9,308.94-112.9,394.47-103.69c96.45,10.38,263.73,108.97,370.37,136.86
				c67.03,17.53,113.79,11.84,173.39-17.28c116.74-57.04,215.94-53.04,328.15,2.7v-162.33c0,0-99.76-78.23-341.05,32.43
				C1521.87,2830.68,1473.49,2847.73,1399.11,2846.5z"/>
			
				<linearGradient id="SVGID_00000173161676004097580900000004475285073882111154_" gradientUnits="userSpaceOnUse" x1="954.8784" y1="2786.1711" x2="954.8784" y2="2174.3242">
				<stop  offset="0" style="stop-color:#FFFFFF"/>
				<stop  offset="1" style="stop-color:#FFFFFF;stop-opacity:0"/>
			</linearGradient>
			<path style="fill:url(#SVGID_00000173161676004097580900000004475285073882111154_);" d="M-10.24,2174.32v430.93
				c12.12,24.77,94.59,180.92,246.74,180.92c225.72,0,329.34-179.69,558.3-179.69c205.44,0,367.18,133.83,574.77,167.69
				c55.46,9.05,129.21,5.82,189.3-32.18c218.23-138,262.66-112.02,361.12-72.13v-495.54H-10.24z"/>
		</g>
		<g>
			<path class="st11" d="M409.22,2441.22c0,0,51.89-0.43,91.42-17.24c34.8-14.8,59.94-34.22,88.04-61.89
				c21.51-21.18,83.57-72.97,150.05-71.35s119.24,27.14,211.68,28.11c92.43,0.97,87.15-19.14,179.68-8.22
				c130.05,15.35,158.93,48.29,233.19,47.14c62.59-0.97,92.22-38.27,99.89-32.11c7.68,6.16-2.01,30.33-37.51,50.16
				c-27.68,15.46-66.76,28.97-129.84,29.62c-65.84,0.68-112.97-43.78-158.81-55.03c-45.84-11.24-148.33,2.22-195.68,1.19
				c-54.7-1.19-134.7-15.03-193.08,4.43c-58.38,19.46-85.19,49.18-137.08,70.49C569.19,2443.75,474.51,2480.25,409.22,2441.22z"/>
			<path class="st11" d="M1024.57,2237.54c0,0,20.32-19.89,70.49-25.51c50.16-5.62,79.1-2.09,136.22,12.76
				c65.73,17.08,155.68,13.62,188.11-18.81c32.43-32.43,23.08-54.88,58.81-78.7c41.51-27.68,82.59-6.92,147.89-6.05
				c65.3,0.86,102.7-58.92,102.7-58.92h124.54c0,0-17.6,58.57-83.03,103.14c-67.14,45.73-142.7,26.59-164.43,17.51
				c-31.22-13.05-69.41-32.11-96.32-9.41c-43.22,36.45-28.11,51.89-66.49,78.81c-42.12,29.54-100.86,18.49-190.38,0
				S1087.7,2225.44,1024.57,2237.54z"/>
			<path class="st11" d="M1189.97,2495.92c-5.19-10.81,14.38-38.71,87.14-33.51c115.03,8.22,143.28,67.96,255.14,64.65
				c109.62-3.24,128.88-58.31,220.54-88.86c77.84-25.95,136.86-22.7,175.78-8.43v60.76c-82.38-14.27-120.65-45.84-218.59,6.05
				c-122.65,64.98-108.33,111.58-217.95,108.31c-108.32-3.23-91.69-51.97-188.76-92.94
				C1229.97,2481,1195.16,2506.73,1189.97,2495.92z"/>
			<path class="st11" d="M-3.32,2389.76c0,0,21.62,55.35,67.46,80.86s70.8,13.79,76.97,30.7c5.78,15.84-42.5,32-88.33,24.65
				c-45.84-7.35-68.64-28.11-68.64-28.11L-3.32,2389.76z"/>
			<path class="st11" d="M1093.93,2477.72c-6.83,12.69-29.92-9.71-68.73-12.94c-35.76-2.98-58.64-7.96-84.65-17.03
				c-26.01-9.07-58.82-22.88-51.74-34.18c7.08-11.3,20.61,9.35,62.89,4.28c42.28-5.07,80.15-0.43,104.02,8.37
				C1085.17,2437.05,1103.78,2459.41,1093.93,2477.72z"/>
			<path class="st11" d="M875.81,2177c0,0-23.73-23.58-111.14-29.41c-71.35-4.76-138.59-8.43-181.41,22.7
				c-47.88,34.82-61.95,45.73-102.81,51.24s-63.24-19.14-109.62,37.3c-46.38,56.43-57.41,95.05-138.49,127.03
				c-124.97,49.3-234.81-131.24-234.81-131.24v53.84c0,0,29.19,16.86,83.03,70.7s90.73,78.23,151.78,62.27
				c99.24-25.95,89.51-92.76,144.65-139.46c57.52-48.72,108.32,20.11,165.41-8.18c70.15-34.76,84.32-64.9,206.27-98.85
				C822.78,2174.32,875.81,2177,875.81,2177z"/>
			<path class="st11" d="M-2.46,2175.27c0,0,11.64,6.81,49.71,8.03c73.1,2.35,135.8-49.98,173.42-133.44
				c44.61-98.96-15.57-2.16-15.57-2.16s-41.52,84.05-116.76,91.24c-57.51,5.5-90.81-9.08-90.81-9.08l-21.41,17.73L-2.46,2175.27z"/>
			<path class="st11" d="M181.32,2220.68c-6.9-17.14,12.53-28.32,29.41-41.95c27.22-21.99,38.49-39.78,62.7-128
				c24.22-88.22,336.43,11.24,336.43,11.24s-51.46,40.65-96.43,48.86c-44.97,8.22-128,9.95-175.57,35.46
				c-47.57,25.51-54.49,49.3-97.73,67.89C198.66,2232.03,184.67,2228.99,181.32,2220.68z"/>
			<path class="st11" d="M1481.22,2415.82c0,0,39.35-14.81,72.11-70.71c26.87-45.84,35.73-70.94,64.54-84.65
				c60-28.54,101.62-3.03,153.95-4.32c85.18-2.11,140.76-21.62,178.59-36.32c37.84-14.7-20.22,65.3-20.22,65.3
				s-26.27,43.46-96.97,43.46c-80.76,0-134.84-32.52-185.84-15.24C1566.95,2340.57,1585.86,2418.83,1481.22,2415.82z"/>
			<path class="st11" d="M1139.16,2055.17c0,0,34.05,25.95,86.27,46.05c47.29,18.21,78.59,13.41,79.35,23.46
				c0.62,8.2-45.19,22.92-103.14,8s-64.65-24-122.16-33.51c-57.51-9.51-109.41-4.76-142.05-39.78"/>
			<path class="st11" d="M990.78,2227.22c-4.53,8.91-12.97,12.65-39.89,10.38c-26.92-2.27-48.81,0.97-50.92-10.22
				s28.22-24.32,59.19-25.3S995.32,2218.3,990.78,2227.22z"/>
			<path class="st11" d="M86.94,2264.58c-7.02-11.09-3.77-34.6,31.69-33.52s40.29,34.12,14.49,41.73
				C112.57,2278.84,94.74,2276.91,86.94,2264.58z"/>
		</g>
		<g class="st12">
			<path class="st13" d="M409.22,2441.22c0,0,51.89-0.43,91.42-17.24c34.8-14.8,59.94-34.22,88.04-61.89
				c21.51-21.18,83.57-72.97,150.05-71.35s119.24,27.14,211.68,28.11c92.43,0.97,87.15-19.14,179.68-8.22
				c130.05,15.35,158.93,48.29,233.19,47.14c62.59-0.97,92.22-38.27,99.89-32.11c7.68,6.16-2.01,30.33-37.51,50.16
				c-27.68,15.46-66.76,28.97-129.84,29.62c-65.84,0.68-112.97-43.78-158.81-55.03c-45.84-11.24-148.33,2.22-195.68,1.19
				c-54.7-1.19-134.7-15.03-193.08,4.43c-58.38,19.46-85.19,49.18-137.08,70.49C569.19,2443.75,474.51,2480.25,409.22,2441.22z"/>
			<path class="st13" d="M1024.57,2237.54c0,0,20.32-19.89,70.49-25.51c50.16-5.62,79.1-2.09,136.22,12.76
				c65.73,17.08,155.68,13.62,188.11-18.81c32.43-32.43,23.08-54.88,58.81-78.7c41.51-27.68,82.59-6.92,147.89-6.05
				c65.3,0.86,102.7-58.92,102.7-58.92h124.54c0,0-17.6,58.57-83.03,103.14c-67.14,45.73-142.7,26.59-164.43,17.51
				c-31.22-13.05-69.41-32.11-96.32-9.41c-43.22,36.45-28.11,51.89-66.49,78.81c-42.12,29.54-100.86,18.49-190.38,0
				S1087.7,2225.44,1024.57,2237.54z"/>
			<path class="st13" d="M1189.97,2495.92c-5.19-10.81,14.38-38.71,87.14-33.51c115.03,8.22,143.28,67.96,255.14,64.65
				c109.62-3.24,128.88-58.31,220.54-88.86c77.84-25.95,136.86-22.7,175.78-8.43v60.76c-82.38-14.27-120.65-45.84-218.59,6.05
				c-122.65,64.98-108.33,111.58-217.95,108.31c-108.32-3.23-91.69-51.97-188.76-92.94
				C1229.97,2481,1195.16,2506.73,1189.97,2495.92z"/>
			<path class="st13" d="M-3.32,2389.76c0,0,21.62,55.35,67.46,80.86s70.8,13.79,76.97,30.7c5.78,15.84-42.5,32-88.33,24.65
				c-45.84-7.35-68.64-28.11-68.64-28.11L-3.32,2389.76z"/>
			<path class="st13" d="M1093.93,2477.72c-6.83,12.69-29.92-9.71-68.73-12.94c-35.76-2.98-58.64-7.96-84.65-17.03
				c-26.01-9.07-58.82-22.88-51.74-34.18c7.08-11.3,20.61,9.35,62.89,4.28c42.28-5.07,80.15-0.43,104.02,8.37
				C1085.17,2437.05,1103.78,2459.41,1093.93,2477.72z"/>
			<path class="st13" d="M875.81,2177c0,0-23.73-23.58-111.14-29.41c-71.35-4.76-138.59-8.43-181.41,22.7
				c-47.88,34.82-61.95,45.73-102.81,51.24s-63.24-19.14-109.62,37.3c-46.38,56.43-57.41,95.05-138.49,127.03
				c-124.97,49.3-234.81-131.24-234.81-131.24v53.84c0,0,29.19,16.86,83.03,70.7s90.73,78.23,151.78,62.27
				c99.24-25.95,89.51-92.76,144.65-139.46c57.52-48.72,108.32,20.11,165.41-8.18c70.15-34.76,84.32-64.9,206.27-98.85
				C822.78,2174.32,875.81,2177,875.81,2177z"/>
			<path class="st13" d="M-2.46,2175.27c0,0,11.64,6.81,49.71,8.03c73.1,2.35,135.8-49.98,173.42-133.44
				c44.61-98.96-15.57-2.16-15.57-2.16s-41.52,84.05-116.76,91.24c-57.51,5.5-90.81-9.08-90.81-9.08l-21.41,17.73L-2.46,2175.27z"/>
			<path class="st13" d="M181.32,2220.68c-6.9-17.14,12.53-28.32,29.41-41.95c27.22-21.99,38.49-39.78,62.7-128
				c24.22-88.22,336.43,11.24,336.43,11.24s-51.46,40.65-96.43,48.86c-44.97,8.22-128,9.95-175.57,35.46
				c-47.57,25.51-54.49,49.3-97.73,67.89C198.66,2232.03,184.67,2228.99,181.32,2220.68z"/>
			<path class="st13" d="M1481.22,2415.82c0,0,39.35-14.81,72.11-70.71c26.87-45.84,35.73-70.94,64.54-84.65
				c60-28.54,101.62-3.03,153.95-4.32c85.18-2.11,140.76-21.62,178.59-36.32c37.84-14.7-20.22,65.3-20.22,65.3
				s-26.27,43.46-96.97,43.46c-80.76,0-134.84-32.52-185.84-15.24C1566.95,2340.57,1585.86,2418.83,1481.22,2415.82z"/>
			<path class="st13" d="M1139.16,2055.17c0,0,34.05,25.95,86.27,46.05c47.29,18.21,78.59,13.41,79.35,23.46
				c0.62,8.2-45.19,22.92-103.14,8s-64.65-24-122.16-33.51c-57.51-9.51-109.41-4.76-142.05-39.78"/>
			<path class="st13" d="M990.78,2227.22c-4.53,8.91-12.97,12.65-39.89,10.38c-26.92-2.27-48.81,0.97-50.92-10.22
				s28.22-24.32,59.19-25.3S995.32,2218.3,990.78,2227.22z"/>
			<path class="st13" d="M86.94,2264.58c-7.02-11.09-3.77-34.6,31.69-33.52s40.29,34.12,14.49,41.73
				C112.57,2278.84,94.74,2276.91,86.94,2264.58z"/>
		</g>
	</g>
</g>
</svg>
